<?xml version="1.0" encoding="UTF-8" standalone="no"?>
<!-- Created with Inkscape (http://www.inkscape.org/) -->

<svg
   width="128.0px"
   height="128.0px"
   viewBox="0 0 128.0 128.0"
   version="1.1"
   id="SVGRoot"
   sodipodi:docname="emacsium.svg"
   inkscape:version="1.2.1 (9c6d41e410, 2022-07-14)"
   xmlns:inkscape="http://www.inkscape.org/namespaces/inkscape"
   xmlns:sodipodi="http://sodipodi.sourceforge.net/DTD/sodipodi-0.dtd"
   xmlns:xlink="http://www.w3.org/1999/xlink"
   xmlns="http://www.w3.org/2000/svg"
   xmlns:svg="http://www.w3.org/2000/svg">
  <sodipodi:namedview
     id="namedview13853"
     pagecolor="#ffffff"
     bordercolor="#000000"
     borderopacity="0.25"
     inkscape:showpageshadow="2"
     inkscape:pageopacity="0.0"
     inkscape:pagecheckerboard="0"
     inkscape:deskcolor="#d1d1d1"
     inkscape:document-units="px"
     showgrid="false"
     inkscape:zoom="8.8089156"
     inkscape:cx="72.653664"
     inkscape:cy="66.296469"
     inkscape:window-width="2560"
     inkscape:window-height="1406"
     inkscape:window-x="0"
     inkscape:window-y="0"
     inkscape:window-maximized="1"
     inkscape:current-layer="layer2"
     showguides="true">
    <inkscape:grid
       type="xygrid"
       id="grid13859" />
  </sodipodi:namedview>
  <defs
     id="defs13848">
    <linearGradient
       inkscape:collect="always"
       id="linearGradient20715">
      <stop
         style="stop-color:#bd6900;stop-opacity:1;"
         offset="0"
         id="stop20711" />
      <stop
         style="stop-color:#ff8c00;stop-opacity:0;"
         offset="1"
         id="stop20713" />
    </linearGradient>
    <linearGradient
       inkscape:collect="always"
       xlink:href="#linearGradient20715"
       id="linearGradient20717"
       x1="105.12807"
       y1="99.462196"
       x2="-21.883997"
       y2="-16.825184"
       gradientUnits="userSpaceOnUse"
       gradientTransform="translate(-0.86885073,-0.37342071)" />
  </defs>
  <g
     inkscape:label="Layer 1"
     inkscape:groupmode="layer"
     id="layer1">
    <circle
       style="fill:url(#linearGradient20717);fill-opacity:1;stroke:#774000;stroke-width:2;stroke-dasharray:none;stroke-opacity:1"
       id="path18380"
       cy="64"
       cx="64"
       r="63" />
  </g>
  <g
     inkscape:groupmode="layer"
     id="layer2"
     inkscape:label="Layer 2">
    <path
       style="fill:#ffffff;fill-opacity:1;stroke:none;stroke-width:2;stroke-dasharray:none;stroke-opacity:1"
       id="path53225"
       d="m 83.212198,16.813933 c 0.585235,0.04972 1.177186,0.06748 1.761351,-0.0066 0.382206,-0.04844 0.760477,-0.12405 1.140786,-0.185641 1.622411,-0.362352 3.284761,-0.432526 4.937176,-0.547787 1.353685,-0.06592 0.467275,-0.03974 1.835506,-0.03751 0.592503,9.66e-4 0.966319,-0.02262 1.554916,0.03271 0.6069,0.05705 0.928754,0.139338 1.522349,0.260738 0.823108,0.215564 4.148348,1.095188 -2.073675,-0.649394 -0.210467,-0.05901 0.412712,0.144752 0.614985,0.227604 0.55913,0.229024 1.065866,0.526913 1.57574,0.847226 0.401486,0.259204 0.753622,0.574763 1.040159,0.957332 0.13899,0.185573 0.270674,0.374622 0.323626,0.605129 0.02006,0.08733 0.0095,0.178953 0.01427,0.268429 -0.02244,0.08436 -0.02275,0.178026 -0.06733,0.25308 -0.05452,0.09178 -0.137562,0.165132 -0.220783,0.231994 -0.661649,0.531589 -1.597522,0.544438 -2.399992,0.62141 -1.651541,0.187221 -3.319572,0.195632 -4.979954,0.180646 -1.94889,-0.0464 -3.896888,-0.121688 -5.844608,-0.202375 -0.363225,-0.01363 -0.726377,-0.02937 -1.089675,-0.0409 -1.047458,-0.03323 -1.282647,-0.02351 -2.344636,-0.07379 -1.242265,-0.05882 -2.483902,-0.145262 -3.72551,-0.216746 -2.149469,-0.09326 -4.298594,-0.195162 -6.447262,-0.305392 -2.082169,-0.140602 -4.168104,-0.123685 -6.252296,-0.05474 -1.964395,0.09041 -3.929522,0.226835 -5.880404,0.477484 -1.834918,0.225746 -3.636875,0.566017 -5.432376,1.00234 -1.864211,0.463556 -3.653036,1.162087 -5.403747,1.94354 -1.682005,0.867802 -3.313697,1.835461 -4.908993,2.853508 -0.260869,0.172276 -0.531946,0.33001 -0.782606,0.516828 -0.716195,0.533783 -1.31785,1.193713 -1.905273,1.860345 -0.721172,0.818414 -0.506861,0.570492 -1.179591,1.424496 -0.676533,0.934284 -1.276303,1.925536 -1.757075,2.974981 -0.293689,0.641076 -0.346049,0.822497 -0.587392,1.479571 -0.381998,1.285466 -0.504898,2.658865 -0.26656,3.98571 0.05015,0.279168 0.132892,0.551486 0.199338,0.827229 0.593661,1.738061 1.71345,3.203202 3.041854,4.450825 0.311069,0.292154 0.644502,0.559544 0.966753,0.839316 1.416868,1.185162 3.022533,2.088115 4.714369,2.815688 1.033014,0.444247 1.584783,0.623066 2.632823,0.99704 3.914622,1.269974 7.813605,2.62851 11.872725,3.336405 1.523452,0.265684 3.053471,0.419221 4.591416,0.569702 2.11607,0.177189 4.237533,0.277486 6.359312,0.353726 0.550643,0.01979 1.101125,0.04708 1.652056,0.05568 0.515897,0.0081 1.031913,-0.0038 1.547869,-0.0057 2.730597,-0.01569 5.460172,-0.09897 8.18705,-0.23944 1.926837,-0.100848 3.852597,-0.236777 5.766712,-0.482695 0.911995,-0.136596 1.839217,-0.19778 2.74558,-0.372955 0.294953,-0.05701 0.583166,-0.144608 0.875223,-0.214962 0.215956,-0.01875 0.410407,-0.117498 0.617971,-0.16696 0.137918,-0.03287 0.283072,-0.0289 0.420585,-0.06342 0.03145,-0.0079 0.11733,-0.02975 0.08751,-0.04247 -3.272832,-1.396271 -6.56471,-2.747467 -9.847065,-4.121201 -0.724679,0.262277 -1.492706,0.360929 -2.248749,0.490393 -1.313413,0.182303 -2.633127,0.314184 -3.95298,0.439451 -1.340769,0.160715 -2.689448,0.227749 -4.037516,0.290759 -1.162077,0.05767 -2.324999,0.09508 -3.488216,0.119199 -1.325083,0.0206 -2.647555,0.08677 -3.969846,0.171619 -1.473925,0.103108 -2.947215,0.217964 -4.418866,0.35069 -0.923207,0.103341 -1.848091,0.1948 -2.760238,0.376414 -0.592336,0.117938 -0.733233,0.166532 -1.319816,0.3246 -0.746423,0.259614 -1.491329,0.533646 -2.20072,0.884688 -0.831093,0.411265 -1.621271,0.905793 -2.41209,1.3877 -0.804069,0.530556 -1.617217,1.056048 -2.354835,1.678906 -0.780457,0.659032 -1.475583,1.400279 -2.158928,2.156366 -0.216989,0.259996 -0.442938,0.512769 -0.650967,0.779988 -0.208621,0.267982 -0.400393,0.548675 -0.598264,0.82469 -0.361199,0.503847 -0.800636,1.119658 -1.131159,1.645801 -0.289865,0.461422 -0.671123,1.152885 -0.93914,1.629653 -0.156077,0.271383 -0.319123,0.538875 -0.468231,0.814148 -0.148392,0.273954 -0.280681,0.556342 -0.423978,0.832995 -0.309728,0.597971 -0.584168,1.074454 -0.853936,1.692997 -0.284293,0.651849 -0.465051,1.217025 -0.697585,1.888804 -0.302067,0.969211 -0.632346,1.937283 -0.84577,2.931673 -0.220466,1.027204 -0.325539,2.07551 -0.423558,3.119446 -0.02351,0.354313 -0.05595,0.708147 -0.07052,1.06294 -0.02247,0.547166 -0.0242,1.770875 -0.019,2.310245 0.0042,0.438716 0.03608,2.022235 0.0606,2.450571 0.02542,0.444187 0.07255,0.886867 0.108822,1.3303 0.09132,1.369984 0.247213,2.734083 0.418186,4.095987 0.05733,0.45668 0.106783,0.91452 0.176798,1.369428 0.0089,0.05809 0.49156,2.757747 0.503201,2.822913 0.473592,2.592916 0.946655,5.185792 1.339296,7.792357 0.05374,0.375562 0.119815,0.749565 0.161233,1.126685 0.03917,0.356667 0.0323,0.717854 0.0804,1.073427 0.09768,0.722202 0.299894,1.446425 0.501958,2.144096 0.194106,0.670192 0.429633,1.38202 0.64435,2.046384 0.515633,1.47941 0.966631,2.97903 1.431269,4.47453 0.04636,0.073 0.594528,0.96946 0.708353,1.02341 0.9398,0.44544 1.966078,0.68264 2.927007,1.08045 0.618089,0.25588 1.202985,0.58555 1.804477,0.87832 0,0 0.290437,0.0841 0.290437,0.0841 v 0 c 0.640259,0.0319 1.281369,0.0498 1.920777,0.0957 1.815136,0.13031 2.790409,1.18978 2.953368,-0.16784 0.01875,-0.15621 10e-4,-0.31466 0.0015,-0.47199 -0.592538,-1.53602 -1.273022,-3.03675 -1.865036,-4.5731 -0.474465,-1.299 -0.261084,-0.68623 -0.705673,-2.02076 -0.243121,-0.72978 -0.468767,-1.444435 -0.752222,-2.16048 -0.153301,-0.387258 -0.345922,-0.758592 -0.490506,-1.149189 -0.14111,-0.381213 -0.243685,-0.775602 -0.365527,-1.163403 -0.113632,-0.409667 -0.233429,-0.817674 -0.340897,-1.229002 -0.294305,-1.126439 -0.353339,-1.463628 -0.606495,-2.605083 -0.297999,-1.343655 -0.596345,-2.687254 -0.848204,-4.040603 -0.484972,-2.701898 -0.885829,-5.423425 -1.061048,-8.164895 -0.01042,-0.347197 -0.06598,-2.127898 -0.06907,-2.501103 -0.01231,-1.487603 0.084,-2.972033 0.185406,-4.455262 0.06272,-0.673491 0.115006,-1.347067 0.21876,-2.016098 0.201292,-1.297989 0.519965,-2.57935 0.942687,-3.822363 0.114865,-0.309946 0.229729,-0.619891 0.344594,-0.929837 0.116579,-0.301988 0.23628,-0.602791 0.349738,-0.905966 0.214585,-0.5734 0.399925,-1.157747 0.625253,-1.727011 0.11057,-0.279343 0.237106,-0.552101 0.35649,-0.827792 0.118832,-0.274414 0.238771,-0.548346 0.358157,-0.822519 0.61992,-1.18882 0.205677,-0.413578 0.868227,-1.605722 0.616983,-1.110156 1.244227,-2.214639 2.096512,-3.167633 0.541819,-0.58294 0.7763,-0.863062 1.372541,-1.392941 0.935622,-0.831486 1.975008,-1.547832 3.037952,-2.204156 0.271956,-0.152311 0.538948,-0.313846 0.815869,-0.456933 1.270681,-0.656568 2.640273,-1.127175 4.036913,-1.426809 1.401858,-0.261471 2.820458,-0.409279 4.244155,-0.488983 1.512848,-0.111807 3.025925,-0.22525 4.543148,-0.255589 1.387495,-0.03107 2.775408,-0.03336 4.162955,-0.06359 1.185942,-0.02734 2.374095,-0.03592 3.556338,-0.142884 1.319659,-0.135225 2.638862,-0.27479 3.964152,-0.344069 1.346861,-0.123485 2.689039,-0.284559 4.033127,-0.434176 0.982531,-0.07926 1.966647,-0.194829 2.953965,-0.151664 -3.179128,-1.38353 -6.358257,-2.767061 -9.537385,-4.150592 0.04328,-0.04638 0.01282,-0.0085 -0.06635,0.01692 -0.06478,0.02078 -0.129854,0.0421 -0.196871,0.05379 -0.245032,0.04275 -0.496914,0.03904 -0.739429,0.100288 -0.340162,0.04772 -0.682563,0.07935 -1.021944,0.132343 -0.833017,0.130063 -1.654977,0.335247 -2.49302,0.437173 -1.781723,0.234118 -3.565072,0.456928 -5.357989,0.588604 -2.543037,0.193399 -5.088648,0.365943 -7.638878,0.426964 -0.960012,0.01501 -1.919643,0.05098 -2.879695,0.06318 -1.947536,0.02474 -3.896502,-0.0523 -5.839173,-0.183552 -0.484018,-0.04103 -0.969041,-0.07157 -1.452054,-0.123093 -0.71259,-0.07602 -2.132558,-0.277798 -2.845702,-0.400544 -2.721837,-0.468484 -8.392319,-2.129272 3.399464,1.33787 -0.483801,-0.149134 -0.971482,-0.286219 -1.451403,-0.447402 -2.181006,-0.732497 -4.280849,-1.719369 -6.126374,-3.105042 -0.31833,-0.258968 -0.646289,-0.50653 -0.954991,-0.776904 -1.243042,-1.088709 -2.297868,-2.381255 -2.844893,-3.958013 -0.05666,-0.243816 -0.124607,-0.485281 -0.169973,-0.731448 -0.222562,-1.207682 -0.139951,-2.443086 0.168137,-3.627665 0.07771,-0.233505 0.147584,-0.469764 0.23312,-0.700517 0.469987,-1.26788 1.130243,-2.458375 1.866621,-3.588678 0.327401,-0.48702 0.618358,-0.948104 0.997196,-1.398464 0.714872,-0.849833 1.613701,-1.519986 2.325942,-2.371946 0.582886,-0.561377 1.176546,-1.103889 1.842327,-1.56834 0.758004,-0.528786 1.584063,-0.947852 2.405306,-1.366716 0.758067,-0.35218 0.907708,-0.439461 1.697012,-0.73373 1.20322,-0.448586 2.449631,-0.779352 3.699773,-1.066405 1.80044,-0.390565 3.616136,-0.706096 5.447388,-0.914008 1.917531,-0.196979 3.835007,-0.413037 5.763679,-0.465056 2.104647,-0.04814 4.207349,0.01715 6.308978,0.136952 2.110064,0.09652 4.220096,0.200444 6.33227,0.238559 1.066389,-0.0041 2.134763,-0.03428 3.201054,-0.01879 0.858433,0.01247 1.521338,0.05335 2.379569,0.09686 0.374062,0.01896 0.748114,0.03813 1.122171,0.05719 2.012494,0.103502 4.024851,0.224397 6.039871,0.264845 1.528366,0.01103 3.051094,0.02478 4.475196,-0.616926 0.13051,-0.107094 0.27321,-0.200867 0.39155,-0.321281 0.0585,-0.0595 0.50134,-0.66203 0.54969,-0.726073 0.28918,-0.383061 0.53069,-0.675039 0.5552,-1.179036 -0.0245,-0.135903 -0.0302,-0.276607 -0.0736,-0.407711 -0.27766,-0.838823 -1.12899,-1.334854 -1.766438,-1.869277 -0.418126,-0.289077 -0.565208,-0.408212 -1.020904,-0.650285 -0.267802,-0.14226 -0.922304,-0.442155 -1.207846,-0.53309 -3.627922,-1.155366 -2.821908,-0.94904 -4.802451,-1.416333 -1.878676,-0.325377 -3.780091,-0.495516 -5.686841,-0.521517 -2.056215,-0.04438 -4.112437,0.0056 -6.168365,0.05075 -0.258422,0.01657 -1.081639,0.0644 -1.370183,0.100364 -0.320561,0.03995 -0.741056,0.100126 -0.932484,0.397745 0,0 4.691123,2.01458 4.691123,2.01458 z" />
  </g>
</svg>
